<svg xmlns="http://www.w3.org/2000/svg" width="1200" height="630" viewBox="0 0 1200 630">
  <rect width="1200" height="630" fill="#f7f3ea"/>
  <g opacity="0.18" stroke="#12355b">
    <path d="M0 120h1200M0 240h1200M0 360h1200M0 480h1200"/>
    <path d="M120 0v630M240 0v630M360 0v630M480 0v630M600 0v630M720 0v630M840 0v630M960 0v630M1080 0v630"/>
  </g>
  <rect x="80" y="78" width="1040" height="474" fill="#fffdf8" stroke="#d8cfc0"/>
  <text x="120" y="240" font-family="Georgia, serif" font-size="88" font-weight="700" fill="#172033">Haitao Yu</text>
  <text x="124" y="305" font-family="Georgia, serif" font-size="34" fill="#12355b">Multimodal Learning / AI4Science / Scientific Intelligence</text>
  <text x="124" y="372" font-family="Georgia, serif" font-size="28" fill="#5c677d">Molecules, spectra, and 3D point cloud understanding</text>
  <rect x="124" y="438" width="760" height="10" fill="#12355b"/>
  <rect x="124" y="458" width="460" height="10" fill="#1f7a6d"/>
  <rect x="124" y="478" width="280" height="10" fill="#c99a2e"/>
</svg>
